G04 DipTrace 2.4.0.2*
%INBottom.gbr*%
%MOMM*%
%ADD14C,0.33*%
%ADD15C,0.635*%
%ADD16R,1.7X0.5*%
%ADD17R,1.0X1.7*%
%ADD18R,1.7X1.0*%
%ADD19R,1.7X2.0*%
%ADD20R,2.0X1.7*%
%ADD22R,1.9X1.9*%
%ADD23C,1.9*%
%ADD25R,1.5X1.5*%
%ADD26C,1.5*%
%ADD27R,1.5X1.3*%
%ADD28R,1.3X1.5*%
%ADD31O,0.85X0.35*%
%ADD32O,0.35X0.85*%
%ADD33R,2.4X2.4*%
%ADD40R,1.1X1.0*%
%ADD48C,1.2*%
%ADD49C,1.016*%
%FSLAX53Y53*%
G04*
G71*
G90*
G75*
G01*
%LNBottom*%
%LPD*%
X29368Y22508D2*
D14*
X24288D1*
Y21555D1*
X19083D1*
X16033Y24605D1*
Y31273D1*
Y33490D1*
X21430D1*
X24288D2*
X23335D1*
X21430D1*
X27463D2*
X24288D1*
X32543Y16990D2*
X32223D1*
Y17303D1*
X24288D1*
Y21555D1*
X18573Y33490D2*
X16033D1*
X27145Y43973D2*
Y45878D1*
X21663Y49098D2*
Y50323D1*
X22383D1*
Y49167D1*
X22313Y49098D1*
X23288Y48123D2*
X24605D1*
Y50323D1*
X22383D1*
X26828Y50328D2*
Y50323D1*
X24605D1*
X29050Y43025D2*
X27145D1*
Y45878D1*
Y43973D2*
Y43025D1*
X32543Y50635D2*
X26828D1*
Y50328D1*
X46513Y12540D2*
X32543D1*
Y16990D1*
X29050Y43025D2*
Y41433D1*
X23335D1*
Y33490D1*
X68103Y32225D2*
X43338D1*
Y33490D1*
X43655D1*
Y40480D1*
X27463Y33490D2*
X43338D1*
X33495Y42068D2*
X43655D1*
Y40480D1*
X29050Y43025D2*
X30638D1*
Y45560D1*
X41115D1*
Y50958D1*
X32865D1*
X32543Y50635D1*
X14763Y31273D2*
X16033D1*
X23288Y46173D2*
X25240D1*
Y46083D1*
X25445Y45878D1*
X22313Y45198D2*
Y43973D1*
X25445D1*
X20068Y29108D2*
Y30228D1*
X21430Y31590D1*
X24288D2*
X21430D1*
X24288D2*
Y26828D1*
X20068D1*
Y29108D1*
X29368Y24708D2*
X21643D1*
X20160Y26190D1*
Y29015D1*
X20068Y29108D1*
X19388Y46173D2*
X18255D1*
Y46823D1*
X19388D1*
Y47473D2*
X18255D1*
Y48100D1*
X19366D1*
X19388Y48123D1*
X18255Y47473D2*
Y46823D1*
X20363Y49098D2*
Y50119D1*
X20160Y50323D1*
X18255D1*
Y48100D1*
X20363Y45198D2*
Y44176D1*
X20160Y43973D1*
X18255D1*
Y46173D1*
X16668Y50005D2*
X15080D1*
Y53815D1*
X24605D1*
Y52228D1*
X18255Y50323D2*
X15080D1*
Y50005D1*
X26828Y52228D2*
X24605D1*
X70303Y32225D2*
Y39845D1*
X50323D1*
X26828Y52228D2*
X42385D1*
Y44965D1*
Y46513D1*
X53498D1*
Y39845D1*
X50323D1*
X32225Y43695D2*
X42385D1*
Y44965D1*
X29368Y24708D2*
X32860D1*
X35400D1*
Y23653D1*
X43655D1*
Y25875D1*
X52863D1*
X70303D1*
Y32225D1*
X52863Y25875D2*
D3*
X18255Y38258D2*
Y47473D1*
X21113Y38258D2*
X18255D1*
X34448Y15715D2*
X39210D1*
X43655D1*
Y23653D1*
X39210Y15715D2*
D3*
X32860Y24605D2*
Y24708D1*
X21013Y45198D2*
Y40798D1*
X22383D1*
Y36670D1*
X16350D1*
Y42385D1*
X29368Y25808D2*
X32798D1*
X33500Y26510D1*
X18573Y51910D2*
Y51905D1*
X16668D1*
X21013Y49098D2*
Y51369D1*
X20473Y51910D1*
X22705Y52228D2*
X20790D1*
X20473Y51910D1*
X32543Y48735D2*
X26828D1*
Y47473D1*
X23288D1*
X39210Y50005D2*
X34448D1*
Y48735D1*
X32543D1*
X27368Y29108D2*
Y31495D1*
X27463Y31590D1*
Y30003D1*
X39845D1*
Y26828D1*
X40480Y26193D1*
X29368Y20308D2*
X32543D1*
Y18890D1*
X40163D2*
X32543D1*
X29368Y21408D2*
X34153D1*
X35400Y20160D1*
X38893D1*
X35400Y26510D2*
X37940D1*
Y24923D1*
X18573Y31590D2*
Y24605D1*
X19525Y23653D1*
X29323D1*
X29368Y23608D1*
X33858D1*
X35718Y21748D1*
X36988D1*
X29050Y44925D2*
Y46823D1*
X23288D1*
X29050D2*
X35400D1*
Y46830D1*
X39528D1*
D49*
X39210Y50005D3*
X39528Y46830D3*
X46513Y12540D3*
X36988Y21748D3*
X38893Y20160D3*
X40163Y18890D3*
X37940Y24923D3*
X40480Y26193D3*
X52863Y25875D3*
X43655Y40480D3*
X33495Y42068D3*
X14763Y31273D3*
X18255Y38258D3*
X21113D3*
X34448Y15715D3*
X39210D3*
X32860Y24605D3*
X16350Y42385D3*
X43492Y54405D2*
D15*
X42750Y53664D1*
X45288Y54405D2*
X42750Y51867D1*
X47084Y54405D2*
X42750Y50071D1*
X48880Y54405D2*
X42750Y48275D1*
X50676Y54405D2*
X42750Y46479D1*
X52472Y54405D2*
X42750Y44683D1*
X54268Y54405D2*
X42926Y43063D1*
X56064Y54405D2*
X44722Y43063D1*
X57860Y54405D2*
X49850Y46395D1*
X48855Y45400D2*
X45606Y42151D1*
X59656Y54405D2*
X51646Y46395D1*
X48855Y43604D2*
X45606Y40355D1*
X61452Y54405D2*
X51787Y44739D1*
X48933Y41885D2*
X45606Y38558D1*
X63248Y54405D2*
X51716Y42873D1*
X49831Y40987D2*
X45606Y36762D1*
X65044Y54405D2*
X46721Y36082D1*
X66840Y54405D2*
X48517Y36082D1*
X68637Y54405D2*
X50313Y36082D1*
X43236Y29004D2*
X42112Y27880D1*
X70433Y54405D2*
X52109Y36082D1*
X45032Y29004D2*
X42112Y26084D1*
X72229Y54405D2*
X53905Y36082D1*
X46828Y29004D2*
X42112Y24288D1*
X74025Y54405D2*
X55701Y36082D1*
X48624Y29004D2*
X42112Y22492D1*
X36879Y17260D2*
X36394Y16774D1*
X75360Y53944D2*
X57493Y36077D1*
X50422Y29007D2*
X42114Y20699D1*
X38671Y17255D2*
X36396Y14981D1*
X75360Y52148D2*
X70395Y47183D1*
X68755Y45543D2*
X59289Y36077D1*
X52218Y29007D2*
X42114Y18903D1*
X40467Y17255D2*
X38017Y14805D1*
X75360Y50352D2*
X70844Y45836D1*
X70095Y45087D2*
X61085Y36077D1*
X54014Y29007D2*
X39813Y14805D1*
X75360Y48556D2*
X69757Y42953D1*
X68586Y41783D2*
X62881Y36077D1*
X55811Y29007D2*
X41609Y14805D1*
X75360Y46760D2*
X70837Y42237D1*
X69295Y40695D2*
X64677Y36077D1*
X57607Y29007D2*
X43405Y14805D1*
X75360Y44964D2*
X66473Y36077D1*
X59403Y29007D2*
X45201Y14805D1*
X75360Y43168D2*
X68269Y36077D1*
X61199Y29007D2*
X46997Y14805D1*
X75360Y41372D2*
X70051Y36063D1*
X62995Y29007D2*
X48464Y14476D1*
X75360Y39576D2*
X70051Y34267D1*
X64791Y29007D2*
X49004Y13220D1*
X75360Y37780D2*
X70051Y32471D1*
X66587Y29007D2*
X50800Y13220D1*
X75360Y35984D2*
X70051Y30675D1*
X68383Y29007D2*
X52596Y13220D1*
X75360Y34188D2*
X54392Y13220D1*
X75360Y32392D2*
X56188Y13220D1*
X75360Y30596D2*
X57984Y13220D1*
X75360Y28800D2*
X59780Y13220D1*
X75360Y27004D2*
X61576Y13220D1*
X75360Y25208D2*
X63372Y13220D1*
X75360Y23412D2*
X65168Y13220D1*
X75360Y21616D2*
X66964Y13220D1*
X75360Y19820D2*
X68760Y13220D1*
X75360Y18023D2*
X70556Y13220D1*
X75360Y16227D2*
X72352Y13220D1*
X75360Y14431D2*
X74148Y13220D1*
X73654Y54405D2*
X75364Y52695D1*
X71858Y54405D2*
X75360Y50903D1*
X70062Y54405D2*
X75360Y49107D1*
X68266Y54405D2*
X75360Y47311D1*
X66470Y54405D2*
X75360Y45515D1*
X64674Y54405D2*
X75360Y43719D1*
X62878Y54405D2*
X69961Y47321D1*
X70886Y46397D2*
X75360Y41923D1*
X61082Y54405D2*
X68720Y46767D1*
X70332Y45155D2*
X75360Y40127D1*
X59285Y54405D2*
X75360Y38330D1*
X57489Y54405D2*
X69113Y42782D1*
X70746Y41149D2*
X75360Y36534D1*
X55693Y54405D2*
X68649Y41449D1*
X69413Y40686D2*
X75360Y34738D1*
X53897Y54405D2*
X75360Y32942D1*
X52101Y54405D2*
X75360Y31146D1*
X50305Y54405D2*
X68628Y36082D1*
X70051Y34659D2*
X75360Y29350D1*
X48509Y54405D2*
X66832Y36082D1*
X70051Y32863D2*
X75360Y27554D1*
X46713Y54405D2*
X65036Y36082D1*
X70051Y31067D2*
X75360Y25758D1*
X44917Y54405D2*
X63240Y36082D1*
X70051Y29271D2*
X75360Y23962D1*
X43121Y54405D2*
X51131Y46395D1*
X51789Y45737D2*
X61444Y36082D1*
X68522Y29004D2*
X75364Y22162D1*
X42746Y52984D2*
X49335Y46395D1*
X51789Y43941D2*
X59648Y36082D1*
X66726Y29004D2*
X75364Y20366D1*
X42746Y51188D2*
X48858Y45076D1*
X51775Y42159D2*
X57852Y36082D1*
X64930Y29004D2*
X75364Y18570D1*
X42746Y49392D2*
X49026Y43112D1*
X51045Y41093D2*
X56056Y36082D1*
X63134Y29004D2*
X75364Y16774D1*
X42750Y47592D2*
X54265Y36077D1*
X61335Y29007D2*
X75361Y14981D1*
X42750Y45796D2*
X45481Y43065D1*
X45575Y42971D2*
X52469Y36077D1*
X59539Y29007D2*
X75326Y13220D1*
X42750Y44000D2*
X43685Y43065D1*
X45606Y41144D2*
X50673Y36077D1*
X57743Y29007D2*
X73530Y13220D1*
X45606Y39348D2*
X48876Y36077D1*
X55947Y29007D2*
X71734Y13220D1*
X45606Y37552D2*
X47080Y36077D1*
X54151Y29007D2*
X69938Y13220D1*
X52355Y29007D2*
X68142Y13220D1*
X50559Y29007D2*
X66346Y13220D1*
X48763Y29007D2*
X64550Y13220D1*
X46967Y29007D2*
X62754Y13220D1*
X45171Y29007D2*
X60958Y13220D1*
X43375Y29007D2*
X59162Y13220D1*
X42112Y28474D2*
X57366Y13220D1*
X42112Y26677D2*
X55570Y13220D1*
X42112Y24881D2*
X53774Y13220D1*
X42112Y23085D2*
X51977Y13220D1*
X42112Y21289D2*
X50181Y13220D1*
X42112Y19493D2*
X46800Y14805D1*
X42112Y17697D2*
X45004Y14805D1*
X40758Y17255D2*
X43208Y14805D1*
X38962Y17255D2*
X41412Y14805D1*
X37166Y17255D2*
X39616Y14805D1*
X36397Y16227D2*
X37820Y14805D1*
X70828Y41472D2*
X70698Y41184D1*
X70493Y40943D1*
X70228Y40769D1*
X69926Y40676D1*
X69609Y40671D1*
X69304Y40755D1*
X69034Y40920D1*
X68821Y41154D1*
X68682Y41439D1*
X68628Y41750D1*
X68662Y42065D1*
X68784Y42357D1*
X68981Y42604D1*
X69240Y42786D1*
X69540Y42889D1*
X69856Y42903D1*
X70164Y42829D1*
X70438Y42673D1*
X70659Y42445D1*
X70807Y42166D1*
X70873Y41785D1*
X70828Y41472D1*
Y45872D2*
X70698Y45584D1*
X70493Y45343D1*
X70228Y45169D1*
X69926Y45076D1*
X69609Y45071D1*
X69304Y45155D1*
X69034Y45320D1*
X68821Y45554D1*
X68682Y45839D1*
X68628Y46150D1*
X68662Y46465D1*
X68784Y46757D1*
X68981Y47004D1*
X69240Y47186D1*
X69540Y47289D1*
X69856Y47303D1*
X70164Y47229D1*
X70438Y47073D1*
X70659Y46845D1*
X70807Y46566D1*
X70873Y46185D1*
X70828Y45872D1*
X49217Y46348D2*
X51745D1*
Y43502D1*
X51200D1*
X51406Y43307D1*
X51584Y43044D1*
X51698Y42749D1*
X51745Y42385D1*
X51710Y42070D1*
X51606Y41771D1*
X51438Y41502D1*
X51215Y41277D1*
X50948Y41107D1*
X50650Y41000D1*
X50335Y40962D1*
X50020Y40995D1*
X49720Y41096D1*
X49449Y41261D1*
X49222Y41482D1*
X49050Y41748D1*
X48941Y42046D1*
X48900Y42360D1*
X48930Y42675D1*
X49028Y42976D1*
X49191Y43248D1*
X49452Y43504D1*
X48900Y43502D1*
Y46348D1*
X49217D1*
X42703Y54133D2*
Y43020D1*
X45243D1*
X45510Y42865D1*
X45560Y42703D1*
Y36035D1*
X69690D1*
X69958Y35880D1*
X70008Y35718D1*
Y29368D1*
X69852Y29100D1*
X69690Y29050D1*
X42068D1*
Y17620D1*
X41912Y17352D1*
X41750Y17303D1*
X36353D1*
Y14763D1*
X48100D1*
X48368Y14607D1*
X48418Y14445D1*
Y13175D1*
X75405D1*
Y54450D1*
X42703D1*
Y54133D1*
X24664Y41115D2*
X27404D1*
X34824D2*
X41056D1*
X24664Y39845D2*
X27404D1*
X34824D2*
X41056D1*
X24664Y38575D2*
X27404D1*
X34824D2*
X41056D1*
X24664Y37305D2*
X27404D1*
X34824D2*
X41056D1*
X24664Y36035D2*
X27404D1*
X34824D2*
X41056D1*
X16096Y34765D2*
X68361D1*
X29744Y33495D2*
X68361D1*
X29744Y32225D2*
X68361D1*
X41809Y30955D2*
X68361D1*
X17303Y35341D2*
Y34189D1*
X18573Y35341D2*
Y34189D1*
X19843Y35341D2*
Y34189D1*
X21113Y35341D2*
Y34189D1*
X22383Y35341D2*
Y34189D1*
X23653Y35341D2*
Y34189D1*
X24923Y41691D2*
Y34189D1*
X26193Y41691D2*
Y34189D1*
X27463Y41691D2*
Y34189D1*
X28733Y35024D2*
Y34189D1*
X30003Y35024D2*
Y31331D1*
X31273Y35024D2*
Y31331D1*
X32543Y35024D2*
Y31331D1*
X33813Y35024D2*
Y31331D1*
X35083Y42322D2*
Y31331D1*
X36353Y42322D2*
Y31331D1*
X37623Y42322D2*
Y31331D1*
X38893Y42322D2*
Y31331D1*
X40163Y42322D2*
Y31331D1*
X41433Y34706D2*
Y31331D1*
X42703Y34706D2*
Y30384D1*
X43973Y34706D2*
Y30384D1*
X45243Y34706D2*
Y30384D1*
X46513Y34706D2*
Y30384D1*
X47783Y34706D2*
Y30384D1*
X49053Y34706D2*
Y30384D1*
X50323Y34706D2*
Y30384D1*
X51593Y34706D2*
Y30384D1*
X52863Y34706D2*
Y30384D1*
X54133Y34706D2*
Y30384D1*
X55403Y34706D2*
Y30384D1*
X56673Y34706D2*
Y30384D1*
X57943Y34706D2*
Y30384D1*
X59213Y34706D2*
Y30384D1*
X60483Y34706D2*
Y30384D1*
X61753Y34706D2*
Y30384D1*
X63023Y34706D2*
Y30384D1*
X64293Y34706D2*
Y30384D1*
X65563Y34706D2*
Y30384D1*
X66833Y34706D2*
Y30384D1*
X68103Y34706D2*
Y30384D1*
Y34765D2*
X41433D1*
X41165Y34920D1*
X41115Y35083D1*
Y42385D1*
X34765D1*
Y35400D1*
X34610Y35132D1*
X34448Y35083D1*
X27780D1*
X27512Y35238D1*
X27463Y35400D1*
Y41750D1*
X24605D1*
Y35718D1*
X24450Y35450D1*
X24288Y35400D1*
X16033D1*
Y34130D1*
X29368D1*
X29635Y33975D1*
X29685Y33813D1*
Y31273D1*
X41433D1*
X41700Y31117D1*
X41750Y30955D1*
Y30320D1*
X68420D1*
Y34765D1*
X68103D1*
X11334Y25558D2*
X17244D1*
X11334Y24288D2*
X17244D1*
X11334Y23018D2*
X17244D1*
X11334Y21748D2*
X26769D1*
X11334Y20478D2*
X26769D1*
X11334Y19208D2*
X26769D1*
X11334Y17938D2*
X26769D1*
X11334Y16668D2*
X12233D1*
X15704D2*
X26769D1*
X11334Y15398D2*
X12233D1*
X15704D2*
X26769D1*
X11334Y14128D2*
X12233D1*
X15704D2*
X26769D1*
X11334Y12858D2*
X47089D1*
X11334Y11588D2*
X47089D1*
X12540Y26764D2*
Y16895D1*
Y13722D2*
Y11011D1*
X13810Y26764D2*
Y16895D1*
Y13722D2*
Y11011D1*
X15080Y26764D2*
Y16895D1*
Y13722D2*
Y11011D1*
X16350Y26764D2*
Y11011D1*
X17620Y21689D2*
Y11011D1*
X18890Y21689D2*
Y11011D1*
X20160Y21689D2*
Y11011D1*
X21430Y21689D2*
Y11011D1*
X22700Y21689D2*
Y11011D1*
X23970Y21689D2*
Y11011D1*
X25240Y21689D2*
Y11011D1*
X26510Y21689D2*
Y11011D1*
X27780Y13434D2*
Y11011D1*
X29050Y13434D2*
Y11011D1*
X30320Y13434D2*
Y11011D1*
X31590Y13434D2*
Y11011D1*
X32860Y13434D2*
Y11011D1*
X34130Y13434D2*
Y11011D1*
X35400Y13434D2*
Y11011D1*
X36670Y13434D2*
Y11011D1*
X37940Y13434D2*
Y11011D1*
X39210Y13434D2*
Y11011D1*
X40480Y13434D2*
Y11011D1*
X41750Y13434D2*
Y11011D1*
X43020Y13434D2*
Y11011D1*
X44290Y13434D2*
Y11011D1*
X45560Y13434D2*
Y11011D1*
X46830Y13434D2*
Y11011D1*
X12612Y16830D2*
X15640D1*
Y13785D1*
X12295D1*
Y16830D1*
X12612D1*
X46830Y13493D2*
X27145D1*
X26877Y13648D1*
X26828Y13810D1*
Y21748D1*
X17620D1*
X17352Y21903D1*
X17303Y22065D1*
Y26828D1*
X11270D1*
Y10953D1*
X47148D1*
Y13493D1*
X46830D1*
D16*
X29368Y19208D3*
Y20308D3*
Y21408D3*
Y22508D3*
Y23608D3*
Y24708D3*
Y25808D3*
Y26908D3*
D17*
X27368Y29108D3*
X20068D3*
D18*
X29468Y28508D3*
D19*
X29368Y15308D3*
D20*
X13968D3*
Y29108D3*
D22*
X32225Y39845D3*
D23*
Y43695D3*
D25*
X68103Y32225D3*
D26*
X70303D3*
D27*
X16668Y50005D3*
Y51905D3*
X24288Y31590D3*
Y33490D3*
D28*
X24605Y52228D3*
X22705D3*
D27*
X21430Y31590D3*
Y33490D3*
X26828Y52228D3*
Y50328D3*
D31*
X23288Y48123D3*
Y47473D3*
Y46823D3*
Y46173D3*
D32*
X22313Y45198D3*
X21663D3*
X21013D3*
X20363D3*
D31*
X19388Y46173D3*
Y46823D3*
Y47473D3*
Y48123D3*
D32*
X20363Y49098D3*
X21013D3*
X21663D3*
X22313D3*
D33*
X21338Y47148D3*
D25*
X50323Y44925D3*
D26*
Y42385D3*
Y39845D3*
D27*
X29050Y44925D3*
Y43025D3*
X32543Y48735D3*
Y50635D3*
D28*
X35400Y26510D3*
X33500D3*
X18573Y51910D3*
X20473D3*
D27*
X27463Y31590D3*
Y33490D3*
X18573Y31590D3*
Y33490D3*
X32543Y18890D3*
Y16990D3*
D40*
X27145Y45878D3*
X25445D3*
X27145Y43973D3*
X25445D3*
D48*
X29050Y36907D3*
Y39447D3*
M02*
