G04 DipTrace 2.4.0.2*
%INMaskTop.gbr*%
%MOMM*%
%ADD51C,0.9*%
%ADD56C,1.4*%
%ADD58R,4.4X4.4*%
%ADD60O,1.05X0.75*%
%ADD62O,0.75X1.05*%
%ADD64R,2.2X0.8*%
%ADD66R,0.5X1.8*%
%ADD68R,1.8X0.5*%
%ADD70R,1.8X1.4*%
%ADD74R,1.25X0.85*%
%ADD76R,2.7X2.2*%
%ADD78R,2.5X0.7*%
%ADD80R,2.0X1.8*%
%ADD82R,1.8X2.0*%
%ADD90R,1.2X1.2*%
%ADD92R,1.5X1.7*%
%ADD94R,1.7X1.5*%
%ADD96C,1.7*%
%ADD98R,1.7X1.7*%
%ADD100C,2.1*%
%ADD101R,2.1X2.1*%
%FSLAX53Y53*%
G04*
G71*
G90*
G75*
G01*
%LNTopMask*%
%LPD*%
D101*
X54450Y39845D3*
D100*
Y43695D3*
D98*
X18573Y32225D3*
D96*
X16373D3*
D94*
X39845Y40480D3*
Y38580D3*
D92*
X51593Y42703D3*
X49693D3*
X42703Y28733D3*
X44603D3*
X58578Y30320D3*
X56678D3*
X59530Y41115D3*
X57630D3*
X59530Y35400D3*
X57630D3*
X70960Y26510D3*
X69060D3*
X56038Y15715D3*
X54138D3*
D94*
X54768Y21748D3*
Y23648D3*
X56673Y21748D3*
Y23648D3*
D90*
X33813Y32225D3*
X32213D3*
X33813Y34448D3*
X32213D3*
X23018Y28098D3*
Y26498D3*
D82*
X26510Y39210D3*
X23710D3*
D80*
X26510Y33813D3*
Y36613D3*
D90*
X17938Y36035D3*
X16338D3*
D78*
X19525Y42385D3*
Y43185D3*
Y43985D3*
Y44785D3*
Y45585D3*
D76*
X19425Y39535D3*
Y48435D3*
X13925Y39535D3*
Y48435D3*
D51*
X16925Y41785D3*
Y46185D3*
D98*
X36353Y44925D3*
D96*
Y42385D3*
Y39845D3*
D74*
X27463Y27463D3*
Y25563D3*
X25163Y26513D3*
D92*
X60483Y29050D3*
X62383D3*
X37940Y32225D3*
X36040D3*
X37940Y34448D3*
X36040D3*
D94*
X48735Y47465D3*
Y45565D3*
D92*
X65563Y35400D3*
X67463D3*
X38258Y26510D3*
X40158D3*
X29510Y29902D3*
X27610D3*
D94*
X30780Y25140D3*
Y27040D3*
X20160Y28093D3*
Y26193D3*
D92*
X26510Y44925D3*
X24610D3*
X26510Y42385D3*
X24610D3*
X22383Y36035D3*
X20483D3*
X24605Y48418D3*
X22705D3*
X60800Y23018D3*
X58900D3*
X60165Y20160D3*
X58265D3*
X59848Y17620D3*
X57948D3*
D70*
X64928Y33178D3*
X66928D3*
X58895Y32860D3*
X56895D3*
X37305Y29050D3*
X35305D3*
D68*
X51773Y38540D3*
Y38040D3*
Y37540D3*
Y37040D3*
Y36540D3*
Y36040D3*
Y35540D3*
Y35040D3*
Y34540D3*
Y34040D3*
Y33540D3*
Y33040D3*
D66*
X50323Y31590D3*
X49823D3*
X49323D3*
X48823D3*
X48323D3*
X47823D3*
X47323D3*
X46823D3*
X46323D3*
X45823D3*
X45323D3*
X44823D3*
D68*
X43373Y33040D3*
Y33540D3*
Y34040D3*
Y34540D3*
Y35040D3*
Y35540D3*
Y36040D3*
Y36540D3*
Y37040D3*
Y37540D3*
Y38040D3*
Y38540D3*
D66*
X44823Y39990D3*
X45323D3*
X45823D3*
X46323D3*
X46823D3*
X47323D3*
X47823D3*
X48323D3*
X48823D3*
X49323D3*
X49823D3*
X50323D3*
D64*
X61435Y45878D3*
Y47148D3*
Y48418D3*
Y49688D3*
X66835D3*
Y48418D3*
Y47148D3*
Y45878D3*
D62*
X66198Y23653D3*
X67198D3*
X68198D3*
X69198D3*
D60*
X70548Y22303D3*
Y21303D3*
Y20303D3*
Y19303D3*
D62*
X69198Y17953D3*
X68198D3*
X67198D3*
X66198D3*
D60*
X64848Y19303D3*
Y20303D3*
Y21303D3*
Y22303D3*
D58*
X67698Y20803D3*
D56*
X57625Y36907D3*
Y39447D3*
M02*
