M48
METRIC,0000.00
T01C0.486
T02C0.813
T03C0.9
T04C1.1
%
T01
X+003921Y+005001
X+003953Y+004683
X+004366Y+004048
X+003350Y+004207
X+002111Y+003826
X+001826Y+003826
X+001635Y+004239
X+001476Y+003127
X+003286Y+002461
X+003699Y+002175
X+003889Y+002016
X+004016Y+001889
X+003921Y+001572
X+003445Y+001572
X+003794Y+002492
X+004048Y+002619
X+005286Y+002588
X+004651Y+001254
T02
X+002905Y+003691
X+002905Y+003945
T03
X+006810Y+003223
X+007030Y+003223
X+006975Y+004179
X+006975Y+004619
X+005032Y+004493
X+005032Y+004239
X+005032Y+003985
T04
X+003223Y+003985
X+003223Y+004370
T00
M30
